<?xml version="1.0" encoding="UTF-8"?>
<svg width="50px" height="59px" viewBox="0 0 50 59" version="1.1" xmlns="http://www.w3.org/2000/svg" xmlns:xlink="http://www.w3.org/1999/xlink">
    <!-- Generator: Sketch 53.2 (72643) - https://sketchapp.com -->
    <title>Shirt Copy</title>
    <desc>Created with Sketch.</desc>
    <g id="Page-1" stroke="none" stroke-width="1" fill="none" fill-rule="evenodd">
        <g id="Artboard" transform="translate(-1758.000000, -233.000000)">
            <g id="Shirt-Copy" transform="translate(1758.000000, 233.000000)">
                <path d="M23.4665833,57.4400049 C30.7213413,57.6574777 39.6513393,57.9836869 40.3020523,55.1021722 C40.9389204,52.2342496 38.8344868,39.4849063 38.8344868,37.6907557 C38.8344868,35.896605 39.9420834,29.8753267 39.748254,24.5880191 C39.748254,24.5880191 39.8451687,26.7491551 44.6216793,25.1317011 C49.3981898,23.5142471 50.4088718,22.6171718 49.8689184,20.9181655 C49.3151201,19.2191592 45.6323612,10.5882072 44.6216793,7.89698127 C43.6109973,5.20575529 42.4203309,4.58052098 38.5022078,3.04461928 C34.5979296,1.52230964 34.2241157,1.79415065 32.3827363,0.35339331 C32.3827363,0.35339331 24.9618387,2.55530547 18.4962433,2.8973198e-15 C18.4962433,2.8973198e-15 16.8348483,1.34561299 10.4938575,3.31646029 C4.15286669,5.28730759 2.21457255,14.3532052 0.926991449,17.6832575 C-0.360589656,20.9997178 -1.09437244,23.3375505 4.23593644,24.4113225 C9.56624532,25.4850944 9.56624532,23.8676405 9.56624532,23.8676405 C9.56624532,23.8676405 10.1200436,35.352923 9.46933061,39.0363687 C8.83246254,42.7198143 6.71418394,54.7487789 7.90485034,55.7274065 C9.12320666,56.7196262 20.4345374,57.3448605 23.4665833,57.4400049 L23.4665833,57.4400049 Z" id="Shape" fill="#A3A3A3"></path>
                <path d="M40.3008011,55.8379066 C40.9356384,52.9191689 38.8241141,40.0030728 38.8241141,38.189091 C38.8241141,36.3751092 39.9281791,30.2784936 39.7487686,24.9183819 C39.7487686,24.9183819 39.8453742,27.1006156 44.6204554,25.4639403 C49.3955366,23.827265 50.4167967,22.9134546 49.8647642,21.1949455 C49.3127317,19.4627974 45.6279147,10.7338624 44.6204554,8.00607015 C43.6129961,5.27827793 42.4123254,4.63724676 38.5066954,3.09604416 C34.6010654,1.55484156 34.2284435,1.82762078 32.3929354,0.368251949 C32.3929354,0.368251949 25.4511266,6.95587014 18.4955171,0 C18.4955171,0 16.8394195,1.36389611 10.4910457,3.36882338 C4.14267191,5.37375066 2.21055813,14.5527715 0.927082558,17.9215948 C-0.356393019,21.2904182 -1.1016369,23.6499585 4.2392776,24.7410754 C9.58019209,25.8321923 9.58019209,24.1955169 9.58019209,24.1955169 C9.58019209,24.1955169 10.1322246,35.8295507 9.4835864,39.566626 C8.83494821,43.2900624 6.72342387,55.4832936 7.92409457,56.4789378 C9.12476528,57.4745819 20.4276308,58.1019741 23.4638096,58.1974469 C30.7230371,58.4156702 39.6521629,58.7430053 40.3008011,55.8379066 Z" id="Shape" fill="#D4D2D2"></path>
                <path d="M27.0439453,16.8398438 L30.5332031,17.8945312 C30.298827,18.8730518 29.92969,19.6904264 29.4257812,20.3466797 C28.9218725,21.002933 28.2963905,21.4980452 27.5493164,21.8320312 C26.8022424,22.1660173 25.8515683,22.3330078 24.6972656,22.3330078 C23.296868,22.3330078 22.1528365,22.1293966 21.2651367,21.722168 C20.377437,21.3149394 19.6113313,20.5986379 18.9667969,19.5732422 C18.3222624,18.5478464 18,17.2353596 18,15.6357422 C18,13.502919 18.5668889,11.8637753 19.7006836,10.7182617 C20.8344783,9.57274818 22.4384662,9 24.5126953,9 C26.1357503,9 27.4116165,9.32812172 28.340332,9.984375 C29.2690476,10.6406283 29.9589821,11.6484307 30.4101562,13.0078125 L26.8945312,13.7900391 C26.7714838,13.397459 26.6425788,13.1103525 26.5078125,12.9287109 C26.2851551,12.6240219 26.0126969,12.3896493 25.6904297,12.2255859 C25.3681625,12.0615226 25.0078145,11.9794922 24.609375,11.9794922 C23.7070267,11.9794922 23.0156274,12.3427698 22.5351562,13.0693359 C22.1718732,13.6084011 21.9902344,14.4550724 21.9902344,15.609375 C21.9902344,17.0390696 22.2070291,18.0190403 22.640625,18.5493164 C23.0742209,19.0795925 23.6835898,19.3447266 24.46875,19.3447266 C25.2304726,19.3447266 25.8061504,19.1308615 26.1958008,18.703125 C26.5854512,18.2753885 26.8681632,17.6543009 27.0439453,16.8398438 Z" id="C" fill="#FFFFFF" fill-rule="nonzero"></path>
                <path d="M19,41.8417969 L22.7880859,41.6044922 C22.8701176,42.2197296 23.0371081,42.688475 23.2890625,43.0107422 C23.6992208,43.5322292 24.2851524,43.7929688 25.046875,43.7929688 C25.6152372,43.7929688 26.0532211,43.6596693 26.3608398,43.3930664 C26.6684586,43.1264635 26.8222656,42.8173846 26.8222656,42.4658203 C26.8222656,42.1318343 26.6757827,41.8330091 26.3828125,41.5693359 C26.0898423,41.3056627 25.4101616,41.0566418 24.34375,40.8222656 C22.5976475,40.4296855 21.3525428,39.9082064 20.6083984,39.2578125 C19.8583947,38.6074186 19.4833984,37.7783254 19.4833984,36.7705078 C19.4833984,36.1083951 19.675291,35.4829131 20.059082,34.894043 C20.442873,34.3051728 21.0200157,33.8422868 21.7905273,33.5053711 C22.561039,33.1684553 23.6171808,33 24.9589844,33 C26.605477,33 27.8608355,33.3061493 28.7250977,33.918457 C29.5893598,34.5307648 30.1035148,35.5048761 30.2675781,36.8408203 L26.5146484,37.0605469 C26.4150386,36.4804658 26.205568,36.0585951 25.8862305,35.7949219 C25.5668929,35.5312487 25.1259794,35.3994141 24.5634766,35.3994141 C24.1005836,35.3994141 23.7519543,35.4975576 23.5175781,35.6938477 C23.283202,35.8901377 23.1660156,36.1289048 23.1660156,36.4101562 C23.1660156,36.6152354 23.2626943,36.7998039 23.4560547,36.9638672 C23.6435556,37.1337899 24.0888637,37.2919915 24.7919922,37.4384766 C26.5322353,37.8134784 27.7788048,38.1928692 28.5317383,38.5766602 C29.2846717,38.9604511 29.8325178,39.4365206 30.175293,40.0048828 C30.5180681,40.573245 30.6894531,41.2089809 30.6894531,41.9121094 C30.6894531,42.7382854 30.4609398,43.4999965 30.0039062,44.1972656 C29.5468727,44.8945347 28.9082072,45.423338 28.0878906,45.7836914 C27.267574,46.1440448 26.2334047,46.3242188 24.9853516,46.3242188 C22.7939344,46.3242188 21.2763714,45.902348 20.4326172,45.0585938 C19.588863,44.2148395 19.1113287,43.1425846 19,41.8417969 Z" id="S" fill="#FFFFFF" fill-rule="nonzero"></path>
                <path d="M11.1032887,42.3358585 C11.1032887,42.3358585 16.1144953,37.9543571 17.4242424,25.7575758 C17.4242424,25.7575758 14.3207111,35.536977 10.6192517,40.3717372 C6.91779238,45.2064973 11.1032887,42.3358585 11.1032887,42.3358585 L11.1032887,42.3358585 Z" id="Shape" fill="#F2F2F2"></path>
                <path d="M10.9437875,32.0926424 C10.9437875,32.0926424 13.6696709,29.6162859 14.3939394,22.7272727 C14.3939394,22.7272727 12.708369,28.2595586 10.6804171,30.9861852 C8.66563375,33.7259839 10.9437875,32.0926424 10.9437875,32.0926424 L10.9437875,32.0926424 Z" id="Shape" fill="#E3E3E3"></path>
                <path d="M38.5586998,38.4957536 C38.5586998,38.4957536 39.8590359,37.173711 31.8181818,20.4545455 C31.8181818,20.4545455 35.4007406,28.4802791 36.9001078,36.0119159 C38.3994749,43.5435528 38.5586998,38.4957536 38.5586998,38.4957536 L38.5586998,38.4957536 Z" id="Shape" fill="#E8E8E8"></path>
                <path d="M39.3463335,32.1091536 C39.3463335,32.1091536 40.2591178,30.5646564 34.0909091,18.1818182 C34.0909091,18.1818182 36.9260723,24.6955671 38.0739676,30.2691874 C39.221863,35.8428076 39.3463335,32.1091536 39.3463335,32.1091536 L39.3463335,32.1091536 Z" id="Shape" fill="#E3E3E3"></path>
                <path d="M4.54545455,13.8381852 C4.54545455,13.8381852 4.79599141,17.5126448 9.84848485,24.2424242 C9.84848485,24.2424242 6.4940746,18.2798397 5.58935815,14.7265161 C4.68464169,11.1731926 4.54545455,13.8381852 4.54545455,13.8381852 L4.54545455,13.8381852 Z" id="Shape" fill="#D6D6D6"></path>
                <path d="M6.09765535,10.9354576 C6.09765535,10.9354576 5.42127625,15.3576718 9.84848485,24.2424242 C9.84848485,24.2424242 7.32743551,16.5539546 7.15834074,12.1720646 C6.98924596,7.80361597 6.09765535,10.9354576 6.09765535,10.9354576 L6.09765535,10.9354576 Z" id="Shape" fill="#D6D6D6"></path>
                <path d="M44.6969648,14.5296284 C44.6969648,14.5296284 44.2743586,18.0744993 39.3939394,25 C39.3939394,25 42.7066262,18.9641387 43.7154279,15.4877016 C44.7105972,11.983891 44.6969648,14.5296284 44.6969648,14.5296284 L44.6969648,14.5296284 Z" id="Shape" fill="#D6D6D6"></path>
                <path d="M43.1767545,11.6698654 C43.1767545,11.6698654 43.4799573,16.0319623 39.3939394,25 C39.3939394,25 41.8773142,17.2918226 42.2527081,12.9297257 C42.6425402,8.58117564 43.1767545,11.6698654 43.1767545,11.6698654 L43.1767545,11.6698654 Z" id="Shape" fill="#D6D6D6"></path>
                <path d="M11.769418,34.6947737 C11.769418,34.6947737 16.1775419,30.9854067 15.8961722,23.4848485 C15.8961722,23.4848485 14.0873676,29.9626033 11.0324976,33.6446955 C7.99102605,37.3267878 11.769418,34.6947737 11.769418,34.6947737 L11.769418,34.6947737 Z" id="Shape" fill="#E3E3E3"></path>
                <path d="M38.9124084,44.8867826 C39.4843038,47.5278225 39.879184,48.7722915 40.1515152,49.2424242 C39.8655674,46.4492826 39.4843038,43.4487296 39.2119727,41.263995 C37.9047831,36.9221809 36.2707962,33.5206322 31.8181818,24.2424242 C31.8181818,24.2562517 37.0877897,36.5626676 38.9124084,44.8867826 L38.9124084,44.8867826 Z" id="Shape" fill="#E3E3E3"></path>
            </g>
        </g>
    </g>
</svg>